PathFileType	4	(X/Y/Z)	C:/Users/opensim2020/Desktop/walking_exp_matlab/subject01_walking10_straight_02.trc																																																																																																																															
DataRate	CameraRate	NumFrames	NumMarkers	Units	OrigDataRate	OrigDataStartFrame	OrigNumFrames																																																																																																																											
100	100	7	43	mm	100	2215	262																																																																																																																											
Frame#	Time	LFHD			RFHD			LBHD			RBHD			C7			T10			CLAV			STRN			RBAK			LSHO			LUPA			LELB			LFRM			LWRA			LWRB			LFIN			RSHO			RUPA			RELB			RFRM			RWRA			RWRB			RFIN			LASI			RASI			LPSI			RPSI			LTHI			LKNE			LTIB			LANK			LHEE			LTOE			RTHI			RKNE			RTIB			RANK			RHEE			RTOE			*39			*40			*41			*42		
		X1	Y1	Z1	X2	Y2	Z2	X3	Y3	Z3	X4	Y4	Z4	X5	Y5	Z5	X6	Y6	Z6	X7	Y7	Z7	X8	Y8	Z8	X9	Y9	Z9	X10	Y10	Z10	X11	Y11	Z11	X12	Y12	Z12	X13	Y13	Z13	X14	Y14	Z14	X15	Y15	Z15	X16	Y16	Z16	X17	Y17	Z17	X18	Y18	Z18	X19	Y19	Z19	X20	Y20	Z20	X21	Y21	Z21	X22	Y22	Z22	X23	Y23	Z23	X24	Y24	Z24	X25	Y25	Z25	X26	Y26	Z26	X27	Y27	Z27	X28	Y28	Z28	X29	Y29	Z29	X30	Y30	Z30	X31	Y31	Z31	X32	Y32	Z32	X33	Y33	Z33	X34	Y34	Z34	X35	Y35	Z35	X36	Y36	Z36	X37	Y37	Z37	X38	Y38	Z38	X39	Y39	Z39	X40	Y40	Z40	X41	Y41	Z41	X42	Y42	Z42	X43	Y43	Z43
																																																																																																																																		
197	1.96	491.0719	1663.61584	1025.28796	536.0968	1664.18701	1130.31323	374.52164	1639.62085	1069.39697	420.60349	1640.70825	1180.60291	319.77054	1438.37305	1099.95667	280.76416	1143.76135	1099.04602	460.43835	1365.66125	1094.60242	502.69687	1212.172	1086.60144	263.34622	1240.75537	1173.79431	396.28305	1400.75232	935.27313	364.12177	1216.56055	849.96954	351.52249	1065.39978	851.97095	392.64722	959.20557	826.30194	477.09854	848.46899	842.49896	421.66739	840.23535	820.64673	473.87274	774.14606	808.92529	401.06519	1391.58862	1247.64136	352.04031	1188.59192	1348.95801	360.33377	1063.68616	1352.50342	404.79074	950.21295	1379.54077	500.79666	846.54224	1355.09998	458.87262	840.84039	1395.28955	505.83481	768.85254	1391.48682	454.10583	937.53259	987.48273	451.47943	933.34357	1204.97827	267.3833	947.75854	1034.31726	265.29233	951.20251	1179.32043	505.88373	622.61029	916.61273	526.54449	489.92209	930.79755	444.74512	320.7691	920.91461	379.354	110.68961	967.92767	338.18628	82.53972	1027.56091	507.80087	52.18044	943.23358	385.67957	599.71918	1239.2373	390.6611	441.37869	1206.16956	330.3425	275.25668	1202.64771	298.65451	75.09154	1139.16016	250.02161	41.20943	1086.42944	439.10666	33.68668	1138.38599	524.64911	1699.7771	1110.55701	-1973.06885	1024.23132	3102.19897	-2013.04175	1022.17517	3138.73193	NaN	NaN	NaN
198	1.97	497.13184	1663.14795	1024.9314	542.81714	1663.87256	1130.01746	381.1366	1639.3916	1069.56116	427.50345	1640.48657	1180.64954	326.25092	1438.24634	1100.24414	286.82382	1143.78455	1099.36499	466.98975	1365.47314	1094.78918	508.79684	1211.76489	1086.90857	269.58115	1240.81763	1174.34045	402.5704	1400.49963	935.54474	369.47183	1216.35901	850.34351	356.4296	1065.19971	852.44446	396.76804	958.81866	826.68896	480.49225	847.53522	842.70483	425.07462	839.67145	820.72345	476.74246	773.27338	809.13525	407.74567	1391.38171	1247.89539	359.49542	1188.526	1349.79382	367.98453	1063.48584	1353.12012	413.45877	950.45624	1379.98096	510.14185	847.43677	1355.06604	468.49725	841.53143	1395.4668	515.99603	769.90338	1391.47144	460.07071	937.56628	987.76941	456.85376	932.97931	1205.32178	273.2886	947.68683	1034.12708	270.70114	950.92963	1179.09509	512.29498	622.90161	916.55432	534.25067	490.38794	931.60645	459.15396	318.57455	921.22491	402.60208	105.3716	967.89575	361.95288	76.01926	1027.25879	533.53973	51.89514	944.6557	389.29013	599.4339	1239.29565	392.94473	441.11453	1206.01904	332.04395	275.21277	1202.56213	298.87433	75.32014	1139.07642	250.16991	41.3104	1085.88782	439.21616	33.61422	1138.34131	531.43134	1699.4812	1110.29492	-1973.13354	1024.22925	3102.10742	NaN	NaN	NaN	NaN	NaN	NaN
199	1.98	503.11356	1662.66052	1025.09058	549.65607	1663.56897	1129.90979	387.73206	1639.08118	1069.64771	434.29749	1640.26147	1180.61755	332.53149	1438.27185	1100.97229	292.75815	1143.71533	1099.64832	473.22098	1364.97266	1094.99023	514.89117	1211.29517	1087.22339	275.82022	1240.8866	1174.82178	408.87918	1400.15991	935.79352	374.85239	1216.04773	850.6676	361.10089	1065.13123	852.88922	400.96967	958.4751	827.01434	484.04834	846.67242	842.85815	428.46451	839.15833	821.2525	479.77942	772.58221	809.14026	414.45053	1391.12976	1247.98755	366.87827	1188.28894	1350.14551	375.58261	1063.24072	1353.68311	422.05969	950.55457	1380.35022	519.37677	848.26917	1354.90894	478.04059	842.04126	1395.63611	526.10016	770.79413	1391.37415	466.03006	937.55115	988.04395	462.40494	932.47668	1205.70264	279.1701	947.61316	1034.02319	276.25314	950.61188	1178.88049	518.58221	623.05048	916.37903	541.66254	490.58109	932.40631	473.10092	316.4426	921.6106	425.36108	100.79031	967.92645	385.94992	70.00769	1027.25549	558.72321	51.82662	946.05011	392.97253	599.10748	1239.12366	395.83932	440.65002	1206.13269	334.28839	275.34311	1202.75635	299.0676	75.51988	1138.9707	250.27426	41.75639	1085.80359	439.21439	33.55325	1138.40491	538.12421	1699.12012	1110.07312	-1973.17102	1024.11157	3102.03271	-2013.07947	1022.3894	3138.56592	NaN	NaN	NaN
200	1.99	510.0614	1662.27393	1024.58081	556.24438	1663.08838	1129.41577	394.29941	1638.68738	1069.70862	441.11783	1639.90588	1180.55774	339.01099	1438.20142	1101.28394	298.74011	1143.60107	1099.79724	479.56335	1364.55188	1095.07251	521.00208	1210.79797	1087.43713	281.97961	1240.89282	1175.24414	415.20297	1399.76514	935.84882	380.27884	1215.72925	850.91028	365.63193	1064.91077	853.13403	405.27057	957.99091	827.31299	487.68951	845.72064	843.01727	432.18445	838.45923	821.15863	482.88635	771.73212	809.25549	421.08636	1390.81323	1248.0686	374.13684	1188.20264	1350.86182	383.14185	1063.01746	1354.16272	430.46951	950.41327	1380.5863	528.48981	849.1004	1354.75488	487.37473	842.46918	1395.51868	536.078	771.66937	1391.22778	471.97931	937.54614	988.20093	467.88873	932.06189	1205.93787	285.09958	947.43958	1033.90735	281.96771	950.25537	1178.62	524.71088	622.99762	916.3103	548.9671	490.71204	933.0899	486.85846	314.44226	922.02411	448.25555	96.80417	968.17474	409.3822	64.79177	1027.4342	583.50128	52.59109	947.53217	396.68875	598.86121	1239.04761	398.53076	440.32794	1206.06995	335.21637	275.38095	1202.46228	299.28683	75.78175	1138.80432	250.40479	42.16291	1085.67163	439.41907	33.69065	1138.41626	544.80786	1698.71082	1109.70483	-1973.19434	1024.16968	3102.16333	NaN	NaN	NaN	NaN	NaN	NaN
201	2	516.74371	1661.6366	1024.26697	562.80756	1662.56311	1128.79407	400.8447	1638.22009	1069.67822	447.89938	1639.52368	1180.31567	345.61172	1437.67615	1100.83154	304.76102	1143.38623	1099.90662	486.02304	1364.13049	1094.9823	527.04236	1210.25696	1087.58875	288.16437	1240.79224	1175.56299	421.51645	1399.3634	935.89545	385.77429	1215.34497	851.09222	370.61575	1064.64978	853.41681	409.59479	957.53821	827.55957	491.44907	844.78479	843.10028	435.71277	837.8736	821.72894	486.2655	770.55457	809.51343	427.65384	1390.5542	1248.28589	381.59964	1187.88538	1351.39392	390.70432	1062.65356	1354.49219	438.83954	950.4834	1380.90552	537.50806	849.8042	1354.56458	496.5799	842.80334	1395.74634	545.89075	772.43524	1390.96375	478.03821	937.47491	988.28412	473.50461	931.52069	1206.12231	291.06879	947.17804	1033.74561	287.55536	949.98096	1178.4856	530.74438	622.81323	916.27454	556.00848	490.70398	933.76752	500.34344	312.40662	922.46796	470.55807	93.20388	968.54089	431.38995	60.03782	1026.76294	607.6767	53.3799	948.87976	400.54065	598.51605	1238.92249	401.10864	440.12665	1205.89941	336.95062	275.46323	1202.35669	299.59393	76.09463	1138.68555	250.62006	42.76833	1085.55701	439.50339	33.64495	1138.3645	551.54095	1698.35522	1109.39368	-1972.83484	1024.08264	3102.74658	-2013.06921	1022.05127	3138.68115	NaN	NaN	NaN
202	2.01	523.30304	1661.11157	1023.79102	569.63763	1662.02307	1128.56934	407.44846	1637.7478	1069.52637	454.65894	1639.08447	1180.13855	351.50906	1437.6488	1101.85352	310.85382	1143.1073	1099.89136	492.35764	1363.62439	1094.91211	533.14807	1209.67346	1087.75085	294.31207	1240.64038	1175.74524	427.83862	1398.8833	935.90735	391.367	1214.89661	851.18433	376.22375	1064.15466	853.70007	414.09735	956.9458	827.76044	495.36331	843.86646	843.1922	439.52872	837.16376	821.95917	489.69736	769.836	809.48389	434.23294	1390.01221	1248.02966	389.05139	1187.4696	1351.56665	398.47968	1062.13892	1354.57434	447.21558	950.38818	1380.86169	546.49792	850.41052	1354.33606	505.75461	842.93835	1395.52271	555.54834	773.1062	1390.72424	484.16336	937.29327	988.39209	479.17218	931.01416	1206.25513	297.0448	946.92963	1033.56348	293.23682	949.57959	1178.31641	536.67334	622.46057	916.30255	563.00897	490.59464	934.34296	513.70129	310.55078	922.86243	492.67267	90.38625	968.97845	454.4653	56.02797	1027.34644	631.00647	54.71616	949.98615	404.4386	598.26227	1238.91455	403.97617	439.75674	1205.84302	338.70758	275.59738	1202.30713	299.9975	76.37249	1138.57153	250.82736	43.25647	1085.25598	439.60043	33.57527	1138.33667	558.18921	1697.63928	1108.8197	-1972.76086	1024.70276	3102.96948	-2013.03223	1022.03979	3138.52026	NaN	NaN	NaN
203	2.02	529.80804	1660.38672	1023.5152	576.2442	1661.38342	1127.89465	414.05334	1637.16589	1069.23279	461.43524	1638.61597	1179.85291	358.33362	1437.02039	1100.66931	316.92996	1142.78491	1099.81018	498.68646	1363.14111	1094.80627	539.18872	1209.05994	1087.82019	300.4288	1240.42603	1175.81812	434.09045	1398.30457	935.8382	396.91565	1214.45447	851.09161	381.26645	1063.84558	853.90094	418.80627	956.37756	827.91309	499.41599	842.81763	843.23322	443.56888	836.42413	822.047	493.39502	768.82819	809.56714	440.68466	1389.6814	1248.0061	396.29047	1187.08777	1351.8717	405.84042	1061.76514	1354.90845	455.40106	950.1593	1380.98804	555.38489	850.93597	1354.01453	514.78369	843.16034	1395.34009	565.05676	773.65167	1390.37769	490.36169	937.10706	988.45123	484.87936	930.52905	1206.3363	303.17273	946.52686	1033.3374	299.17798	949.21246	1178.04126	542.70636	622.02124	916.39246	569.74146	490.32846	934.85132	526.53723	308.74512	923.3031	514.06232	87.70011	969.57196	476.68231	52.49669	1027.74194	653.7923	56.32705	950.93872	408.56155	597.86188	1238.57361	406.79196	439.4433	1205.67407	340.43454	275.78735	1202.20239	300.29239	76.74055	1138.42908	250.90811	44.14789	1085.48499	439.76624	33.22176	1138.26624	565.15076	1697.04956	1108.45862	-1972.93359	1024.13257	3102.51709	NaN	NaN	NaN	NaN	NaN	NaN
